<svg height="512" viewBox="0 0 512 512" width="512" xmlns="http://www.w3.org/2000/svg"><g id="flat"><path d="m480 280h-272v-52a12 12 0 0 1 12-12h248a12 12 0 0 1 12 12z" fill="#fbb540"/><path d="m207.507 188.1-17.614 7.045a20.055 20.055 0 0 1 -27.114-14.687 20.056 20.056 0 0 1 12.221-22.551l24.511-9.8z" fill="#e6af89"/><path d="m263.507 168-45.157 23.766a17.711 17.711 0 0 1 -19.1-3.921 17.711 17.711 0 0 1 3.137-27.542l5.76-3.532 88.41-5.626z" fill="#f6bb92"/><path d="m207.507 157.1v-32h80v-38a36 36 0 0 0 -14.4-28.8l-36.136-27.1a36 36 0 0 0 -29.846-6.243l-119.618 28.143h-55.507v104h39.507l16.323 13.061a86.445 86.445 0 0 0 54 18.942 73.206 73.206 0 0 0 45.729-16.041z" fill="#fdc9a6"/><path d="m247.507 112.1a8 8 0 0 1 -8-8v-19a8 8 0 0 1 16 0v19a8 8 0 0 1 -8 8z" fill="#f6bb92"/><path d="m228.792 117.019a7.99 7.99 0 0 1 -6.664-3.564l-21.277-31.915a8 8 0 0 1 13.313-8.875l21.276 31.915a8 8 0 0 1 -6.648 12.439z" fill="#f6bb92"/><path d="m435.077 148.923-91.077 91.077-91.077-91.077a44.124 44.124 0 0 1 -12.923-31.2 44.124 44.124 0 0 1 44.123-44.123 44.124 44.124 0 0 1 31.2 12.923l28.677 28.677 28.677-28.677a44.124 44.124 0 0 1 31.2-12.923 44.124 44.124 0 0 1 44.123 44.123 44.124 44.124 0 0 1 -12.923 31.2z" fill="#e82f3e"/><path d="m208 280h272a0 0 0 0 1 0 0v196a12 12 0 0 1 -12 12h-248a12 12 0 0 1 -12-12v-196a0 0 0 0 1 0 0z" fill="#ea9d2d"/><path d="m143.507 189.1a68.422 68.422 0 0 0 42.741-14.993l21.259-17.007 80.41-3.946a24.805 24.805 0 0 0 23.59-24.775 24.806 24.806 0 0 0 -24.378-24.8l-143.622-2.479z" fill="#fdc9a6"/><path d="m360 192a8 8 0 0 1 -5.657-13.657l8-8a8 8 0 0 1 11.314 11.314l-8 8a7.976 7.976 0 0 1 -5.657 2.343z" fill="#d32b39"/><path d="m392 160a8 8 0 0 1 -5.657-13.657l16-16a8 8 0 0 1 11.314 11.314l-16 16a7.976 7.976 0 0 1 -5.657 2.343z" fill="#d32b39"/><path d="m416 256h-144a8 8 0 0 1 0-16h144a8 8 0 0 1 0 16z" fill="#ea9d2d"/><path d="m344.031 421.565a31.959 31.959 0 0 1 -19.971-56.917l7.165-5.731-16.115-12.892a8 8 0 0 1 10-12.494l18.926 15.141 18.926-15.141a8 8 0 0 1 10 12.494l-16.115 12.892 7.153 5.731a31.954 31.954 0 0 1 -19.97 56.917zm0-52.4-9.976 7.981a15.967 15.967 0 0 0 -1.316 23.76 15.986 15.986 0 0 0 22.584 0 15.968 15.968 0 0 0 -1.317-23.76z" fill="#c38325"/></g></svg>