<svg height="512" viewBox="0 0 512 512" width="512" xmlns="http://www.w3.org/2000/svg"><g id="solid"><path d="m282.849 264.549a8 8 0 0 1 -11.313 0l-3.346-3.349.776 15.82 5.887 7.358c.07.032.142.056.211.09a9.717 9.717 0 0 0 13.4-12.011l-4.664-8.857z"/><path d="m164.89 398.167a8.026 8.026 0 0 1 .21 1.833v80h88v-64a8.007 8.007 0 0 1 1.752-5l13.059-16.322a78.729 78.729 0 0 0 17.189-49c0-.321-.011-.64-.02-.96l-.014-.53a8.1 8.1 0 0 1 .029-.9 60.639 60.639 0 0 0 -13.235-37.035l-17.005-21.253a8.013 8.013 0 0 1 -1.743-4.606l-3.945-80.41a16.8 16.8 0 0 0 -33.576.276c0 .062-.011.123-.015.185v.073l-1.589 92.282a8 8 0 0 1 -8 7.862h-.141a8 8 0 0 1 -7.861-8.137l.247-14.334-12.7 8.464a8 8 0 1 1 -8.875-13.312l21.907-14.605.193-10.738h-9.657a8 8 0 0 1 0-16h9.93l.414-24h-8.344a28.132 28.132 0 0 0 -22.4 11.2l-27.1 36.136a27.929 27.929 0 0 0 -4.855 23.214z"/><path d="m208.191 178.578a32.85 32.85 0 0 1 56.956 20.62l1.875 38.211 10.17 10.17 2.934-2.934c.023-.023.045-.046.068-.068l119.906-119.906a54.286 54.286 0 0 0 -76.771-76.771l-40.48 40.48a8 8 0 0 1 -11.313 0l-40.481-40.48a54.286 54.286 0 0 0 -76.771 76.772zm102.709-.942 20-20a8 8 0 1 1 11.313 11.313l-20 20a8 8 0 0 1 -11.313-11.313zm-28 28 8-8a8 8 0 1 1 11.313 11.313l-8 8a8 8 0 0 1 -11.313-11.313z"/></g></svg>