<svg xmlns="http://www.w3.org/2000/svg" width="100" height="100" viewBox="0 0 100 100" fill="none">
<rect width="100" height="100" rx="4" fill="#3EAFEA"/>
<path d="M54.7195 51.5029C54.4558 51.7666 54.0982 51.9147 53.7252 51.9147C53.3523 51.9147 52.9946 51.7666 52.7309 51.5029L52.1428 50.9142L52.2792 53.6951L53.314 54.9885C53.3263 54.9941 53.3389 54.9983 53.3511 55.0043C53.6563 55.1528 53.9988 55.207 54.335 55.1599C54.6711 55.1129 54.9856 54.9668 55.2384 54.7402C55.4911 54.5137 55.6706 54.217 55.754 53.888C55.8374 53.5589 55.8209 53.2125 55.7065 52.893L54.8867 51.3361L54.7195 51.5029Z" fill="white"/>
<path d="M33.9845 74.9903C34.0092 75.0959 34.0215 75.204 34.0214 75.3125V89.375H49.4901V78.125C49.4901 77.8056 49.5987 77.4956 49.7981 77.2461L52.0936 74.377C54.0459 71.9302 55.111 68.8939 55.1151 65.7637C55.1151 65.7073 55.1132 65.6512 55.1116 65.595L55.1092 65.5018C55.1079 65.449 55.1096 65.3962 55.1143 65.3436C55.0836 62.9754 54.265 60.6848 52.7878 58.8335L49.7986 55.0977C49.6141 54.8666 49.5069 54.5834 49.4923 54.288L48.7988 40.1534C48.7643 39.3899 48.4351 38.6694 47.8804 38.1435C47.3257 37.6176 46.5887 37.3273 45.8244 37.3336C45.0601 37.3399 44.328 37.6423 43.782 38.1772C43.236 38.7121 42.9187 39.4379 42.8968 40.202C42.8968 40.2129 42.8948 40.2236 42.8941 40.2345V40.2473L42.6148 56.4688C42.6085 56.8375 42.4575 57.189 42.1945 57.4475C41.9314 57.706 41.5774 57.8508 41.2086 57.8507H41.1838C40.9991 57.8476 40.8169 57.808 40.6476 57.7344C40.4782 57.6608 40.325 57.5546 40.1966 57.4218C40.0683 57.289 39.9674 57.1322 39.8997 56.9603C39.832 56.7885 39.7988 56.6051 39.802 56.4204L39.8454 53.9008L37.613 55.3886C37.4594 55.4932 37.2866 55.5663 37.1045 55.6037C36.9225 55.6412 36.7348 55.6421 36.5524 55.6066C36.37 55.571 36.1965 55.4997 36.0418 55.3967C35.8871 55.2936 35.7544 55.161 35.6513 55.0064C35.5482 54.8517 35.4768 54.6782 35.4412 54.4958C35.4056 54.3134 35.4065 54.1258 35.4438 53.9437C35.4812 53.7617 35.5542 53.5888 35.6588 53.4352C35.7633 53.2815 35.8973 53.1501 36.0529 53.0486L39.9038 50.4813L39.9377 48.5938H38.2402C37.8672 48.5938 37.5095 48.4456 37.2458 48.1819C36.9821 47.9181 36.8339 47.5605 36.8339 47.1875C36.8339 46.8145 36.9821 46.4569 37.2458 46.1931C37.5095 45.9294 37.8672 45.7813 38.2402 45.7813H39.9857L40.0584 41.5625H38.5917C37.8279 41.5643 37.075 41.743 36.3918 42.0846C35.7087 42.4261 35.1139 42.9213 34.6542 43.5313L29.8906 49.8833C29.4576 50.4592 29.1567 51.1233 29.0092 51.8285C28.8617 52.5337 28.8713 53.2627 29.0371 53.9639L33.9845 74.9903Z" fill="white"/>
<path d="M41.596 36.3907C42.367 35.5547 43.3677 34.9651 44.4725 34.6956C45.5773 34.4261 46.7371 34.4889 47.8064 34.876C48.8757 35.2631 49.8068 35.9574 50.4831 36.8716C51.1594 37.7859 51.5506 38.8795 51.6078 40.0153L51.9374 46.7321L53.7251 48.5198L54.2408 48.004C54.2449 48 54.2488 47.9959 54.2528 47.9921L75.33 26.9148C77.1045 25.1222 78.097 22.6998 78.0906 20.1775C78.0842 17.6551 77.0793 15.2378 75.2957 13.4542C73.5121 11.6706 71.0949 10.6658 68.5725 10.6593C66.0501 10.6529 63.6278 11.6454 61.8351 13.4199L54.7195 20.5355C54.4558 20.7992 54.0981 20.9474 53.7252 20.9474C53.3523 20.9474 52.9946 20.7992 52.7309 20.5355L45.6151 13.4199C43.8233 11.641 41.3995 10.6447 38.8747 10.6493C36.3498 10.6539 33.9297 11.6589 32.1443 13.4443C30.359 15.2296 29.354 17.6498 29.3495 20.1746C29.3449 22.6995 30.3413 25.1232 32.1202 26.915L41.596 36.3907ZM59.6503 36.2251L63.166 32.7095C63.296 32.5765 63.4511 32.4706 63.6224 32.398C63.7936 32.3254 63.9775 32.2874 64.1635 32.2864C64.3495 32.2854 64.5339 32.3212 64.7059 32.3919C64.8779 32.4626 65.0343 32.5667 65.1658 32.6983C65.2973 32.8298 65.4014 32.9861 65.4721 33.1581C65.5428 33.3302 65.5787 33.5145 65.5776 33.7005C65.5766 33.8865 65.5387 34.0704 65.466 34.2417C65.3934 34.4129 65.2876 34.568 65.1546 34.6981L61.639 38.2137C61.3742 38.4725 61.0181 38.6166 60.6479 38.6145C60.2777 38.6124 59.9232 38.4644 59.6614 38.2026C59.3996 37.9408 59.2516 37.5864 59.2495 37.2161C59.2475 36.8459 59.3915 36.4898 59.6503 36.2251ZM54.7285 41.147L56.1347 39.7407C56.2648 39.6077 56.4199 39.5019 56.5911 39.4292C56.7623 39.3566 56.9463 39.3187 57.1323 39.3177C57.3183 39.3166 57.5026 39.3525 57.6747 39.4232C57.8467 39.4939 58.003 39.598 58.1345 39.7295C58.266 39.861 58.3702 40.0173 58.4409 40.1894C58.5116 40.3614 58.5474 40.5458 58.5464 40.7318C58.5453 40.9177 58.5074 41.1017 58.4348 41.2729C58.3622 41.4442 58.2563 41.5993 58.1233 41.7293L56.7171 43.1356C56.4524 43.3944 56.0963 43.5384 55.726 43.5364C55.3558 43.5343 55.0013 43.3863 54.7395 43.1245C54.4777 42.8627 54.3297 42.5082 54.3277 42.138C54.3256 41.7678 54.4696 41.4117 54.7285 41.147Z" fill="white"/>
</svg>