<?xml version="1.0"?>
<svg xmlns="http://www.w3.org/2000/svg" viewBox="0 0 512 512" width="512" height="512"><g id="flat"><circle cx="255.906" cy="255.856" r="232" style="fill:#0292c9"/><path d="M425.612,86.15A240,240,0,1,0,86.2,425.561,240,240,0,0,0,425.612,86.15ZM445.045,376H360.219c9.657-33.834,15.082-72.155,15.712-112.145H479.75A222.173,222.173,0,0,1,445.045,376Zm-184.9,103.8c-1.411.026-2.822.051-4.237.051-1.341,0-2.678-.025-4.015-.048-25.185-2.19-49.152-24.439-67.883-63.236A260.39,260.39,0,0,1,173.726,392H338.274a260.39,260.39,0,0,1-10.282,24.571C309.27,455.351,285.315,477.6,260.143,479.8ZM168.441,376c-10.055-33.433-15.717-71.85-16.37-112.145H359.929c-.653,40.295-6.315,78.712-16.37,112.145ZM32.062,263.855H136.069c.63,39.99,6.055,78.311,15.712,112.145H66.767A222.173,222.173,0,0,1,32.062,263.855ZM66.579,136h85.2c-9.634,33.752-15.056,71.97-15.706,111.855H32.062A222.184,222.184,0,0,1,66.579,136ZM256,32c26.678,0,52.245,22.526,71.992,63.429A260.39,260.39,0,0,1,338.274,120H173.726a260.39,260.39,0,0,1,10.282-24.571C203.755,54.526,229.322,32,256,32Zm87.559,104c10.031,33.353,15.69,71.666,16.365,111.855H152.076c.675-40.189,6.334-78.5,16.365-111.855Zm32.366,111.855c-.65-39.885-6.072-78.1-15.706-111.855h85.015A222.183,222.183,0,0,1,479.75,247.855ZM434.034,120H355.229A280.859,280.859,0,0,0,342.4,88.473c-10.446-21.638-22.636-38.761-36-50.926A222.524,222.524,0,0,1,414.3,97.463,227.489,227.489,0,0,1,434.034,120ZM97.514,97.463A222.521,222.521,0,0,1,205.668,37.487C192.275,49.656,180.062,66.8,169.6,88.473A280.859,280.859,0,0,0,156.771,120H77.778A227.489,227.489,0,0,1,97.514,97.463ZM78,392h78.773A280.859,280.859,0,0,0,169.6,423.527c10.354,21.448,22.425,38.454,35.654,50.6a222.533,222.533,0,0,1-107.74-59.878A227.483,227.483,0,0,1,78,392Zm336.3,22.248A222.518,222.518,0,0,1,306.81,474.066c13.2-12.141,25.253-29.125,35.59-50.539A280.859,280.859,0,0,0,355.229,392h78.585A227.483,227.483,0,0,1,414.3,414.248Z" style="fill:#0bafea"/><path d="M378.351,277.266,255.906,399.711,133.461,277.266a59.319,59.319,0,0,1-17.374-41.946h0A59.32,59.32,0,0,1,175.407,176h0a59.32,59.32,0,0,1,41.946,17.375l38.553,38.553,38.553-38.553A59.32,59.32,0,0,1,336.405,176h0a59.32,59.32,0,0,1,59.32,59.32h0A59.319,59.319,0,0,1,378.351,277.266Z" style="fill:#e82f3e"/><path d="M298.5,355.6l-29.51-23.14,9.55-7.69a35.528,35.528,0,0,0-2.49-57.3l-.44-.29a35.431,35.431,0,0,0-39.41,0l-.44.29a35.522,35.522,0,0,0-2.42,57.35l9.94,7.8-29.5,23.75a5.876,5.876,0,0,0-.64.58l11.35,11.34,31.71-25.53,31.75,24.91,11.35-11.35A7.763,7.763,0,0,0,298.5,355.6Zm-42.43-33.28-12.8-10.04a19.527,19.527,0,0,1,1.37-31.5l.43-.29a19.487,19.487,0,0,1,21.67,0l.43.29a19.531,19.531,0,0,1,1.35,31.52Z" style="fill:#a8222d"/></g></svg>
