<svg height="512" viewBox="0 0 512 512" width="512" xmlns="http://www.w3.org/2000/svg"><g id="flat"><path d="m352 72h48a0 0 0 0 1 0 0v104a24 24 0 0 1 -24 24 24 24 0 0 1 -24-24v-104a0 0 0 0 1 0 0z" fill="#fdc9a6" transform="matrix(-1 0 0 -1 752 272)"/><path d="m352 96v96h16v-118.62a23.979 23.979 0 0 0 -16 22.62z" fill="#f6bb92"/><path d="m304 56h48a0 0 0 0 1 0 0v120a24 24 0 0 1 -24 24 24 24 0 0 1 -24-24v-120a0 0 0 0 1 0 0z" fill="#fdc9a6" transform="matrix(-1 0 0 -1 656 256)"/><path d="m256 48h48a0 0 0 0 1 0 0v128a24 24 0 0 1 -24 24 24 24 0 0 1 -24-24v-128a0 0 0 0 1 0 0z" fill="#fdc9a6" transform="matrix(-1 0 0 -1 560 248)"/><path d="m232 40a24 24 0 0 1 24 24v136a0 0 0 0 1 0 0h-48a0 0 0 0 1 0 0v-136a24 24 0 0 1 24-24z" fill="#fdc9a6"/><path d="m192 488h176v-104l14.264-28.528a167.992 167.992 0 0 0 17.736-75.131v-80.341h-208z" fill="#fdc9a6"/><path d="m219 186v64l22.844 15.991a134 134 0 0 1 57.156 109.777v2.232h-96l-27.416-49.348a100 100 0 0 1 -12.584-48.565v-94.087z" fill="#f6bb92"/><path d="m256 72v136h16v-158.62a23.979 23.979 0 0 0 -16 22.62z" fill="#f6bb92"/><path d="m304 80v112h16v-134.62a23.979 23.979 0 0 0 -16 22.62z" fill="#f6bb92"/><path d="m360 240h-48a8 8 0 0 1 0-16h48a8 8 0 0 1 0 16z" fill="#f6bb92"/><path d="m359.065 194.935-77.065 77.065-77.065-77.065a37.337 37.337 0 0 1 -10.935-26.4 37.336 37.336 0 0 1 37.335-37.335 37.337 37.337 0 0 1 26.4 10.935l24.265 24.265 24.265-24.265a37.337 37.337 0 0 1 26.4-10.935 37.336 37.336 0 0 1 37.335 37.335 37.337 37.337 0 0 1 -10.935 26.4z" fill="#e82f3e"/><path d="m282.859 236.9a8 8 0 0 1 -5.657-13.657l7.184-7.183a8 8 0 1 1 11.314 11.311l-7.183 7.184a7.976 7.976 0 0 1 -5.658 2.345z" fill="#d32b39"/><path d="m308 211.755a8 8 0 0 1 -5.656-13.657l17.956-17.959a8 8 0 1 1 11.314 11.314l-17.96 17.959a7.974 7.974 0 0 1 -5.654 2.343z" fill="#d32b39"/><g fill="#fbb540"><path d="m152 40a8 8 0 0 1 -8-8v-8a8 8 0 0 1 16 0v8a8 8 0 0 1 -8 8z"/><path d="m152 88a8 8 0 0 1 -8-8v-8a8 8 0 0 1 16 0v8a8 8 0 0 1 -8 8z"/><path d="m128 64a8 8 0 0 1 -8-8v-8a8 8 0 0 1 16 0v8a8 8 0 0 1 -8 8z"/><path d="m176 64a8 8 0 0 1 -8-8v-8a8 8 0 0 1 16 0v8a8 8 0 0 1 -8 8z"/><path d="m456 176a8 8 0 0 1 -8-8v-8a8 8 0 0 1 16 0v8a8 8 0 0 1 -8 8z"/><path d="m456 224a8 8 0 0 1 -8-8v-8a8 8 0 0 1 16 0v8a8 8 0 0 1 -8 8z"/><path d="m432 200a8 8 0 0 1 -8-8v-8a8 8 0 0 1 16 0v8a8 8 0 0 1 -8 8z"/><path d="m480 200a8 8 0 0 1 -8-8v-8a8 8 0 0 1 16 0v8a8 8 0 0 1 -8 8z"/></g><path d="m152 286.087v-120.087a14 14 0 0 1 14-14 42 42 0 0 1 42 42v62l22.844 15.991a134 134 0 0 1 57.156 109.777v2.232h-96l-27.416-49.348a100 100 0 0 1 -12.584-48.565z" fill="#fdc9a6"/></g></svg>